<?xml version="1.0"?>
<svg xmlns="http://www.w3.org/2000/svg" xmlns:xlink="http://www.w3.org/1999/xlink" xmlns:svgjs="http://svgjs.com/svgjs" version="1.1" width="512" height="512" x="0" y="0" viewBox="0 0 39.658 39.658" style="enable-background:new 0 0 512 512" xml:space="preserve" class=""><g>
<g xmlns="http://www.w3.org/2000/svg">
	<path d="M30.755,0H8.903c-0.829,0-1.5,0.671-1.5,1.5v36.658c0,0.829,0.671,1.5,1.5,1.5h21.852c0.829,0,1.5-0.671,1.5-1.5V1.5   C32.255,0.671,31.583,0,30.755,0z M15.996,1.829h7.667c0.275,0,0.5,0.224,0.5,0.5s-0.225,0.5-0.5,0.5h-7.667   c-0.276,0-0.5-0.224-0.5-0.5S15.719,1.829,15.996,1.829z M19.829,37.996c-0.736,0-1.333-0.598-1.333-1.333s0.597-1.334,1.333-1.334   c0.736,0,1.333,0.599,1.333,1.333S20.565,37.996,19.829,37.996z M29.255,33.829H10.403V4.162h18.852V33.829z" fill="#ffffff" data-original="#000000" style="" class=""/>
</g>
<g xmlns="http://www.w3.org/2000/svg">
</g>
<g xmlns="http://www.w3.org/2000/svg">
</g>
<g xmlns="http://www.w3.org/2000/svg">
</g>
<g xmlns="http://www.w3.org/2000/svg">
</g>
<g xmlns="http://www.w3.org/2000/svg">
</g>
<g xmlns="http://www.w3.org/2000/svg">
</g>
<g xmlns="http://www.w3.org/2000/svg">
</g>
<g xmlns="http://www.w3.org/2000/svg">
</g>
<g xmlns="http://www.w3.org/2000/svg">
</g>
<g xmlns="http://www.w3.org/2000/svg">
</g>
<g xmlns="http://www.w3.org/2000/svg">
</g>
<g xmlns="http://www.w3.org/2000/svg">
</g>
<g xmlns="http://www.w3.org/2000/svg">
</g>
<g xmlns="http://www.w3.org/2000/svg">
</g>
<g xmlns="http://www.w3.org/2000/svg">
</g>
</g></svg>
